<?xml version="1.0" standalone="no"?>
<!DOCTYPE svg PUBLIC "-//W3C//DTD SVG 20010904//EN"
 "http://www.w3.org/TR/2001/REC-SVG-20010904/DTD/svg10.dtd">
<svg version="1.0" xmlns="http://www.w3.org/2000/svg"
 width="570.000000pt" height="630.000000pt" viewBox="0 0 570.000000 630.000000"
 preserveAspectRatio="xMidYMid meet">

<g transform="translate(0.000000,630.000000) scale(0.100000,-0.100000)"
fill="#000000" stroke="none">
<path d="M2607 6290 c-302 -29 -598 -102 -857 -212 -549 -232 -1021 -639
-1327 -1144 -29 -48 -53 -91 -53 -95 0 -5 83 -9 184 -9 l184 0 48 68 c246 348
567 624 944 811 180 89 313 139 495 186 237 61 320 70 625 70 305 0 388 -9
625 -70 182 -47 315 -97 495 -186 1120 -556 1661 -1852 1269 -3041 -126 -380
-323 -695 -618 -989 -165 -164 -285 -260 -455 -364 -809 -496 -1823 -496
-2632 0 -170 104 -290 200 -455 364 -452 450 -696 988 -739 1629 -20 292 28
675 114 920 l15 42 -172 -2 -172 -3 -32 -129 c-135 -535 -102 -1131 92 -1663
54 -149 204 -443 294 -578 120 -180 198 -274 375 -450 439 -438 958 -700 1581
-797 119 -19 181 -22 415 -22 234 0 296 3 415 22 623 97 1142 359 1581 797
177 176 255 270 375 450 90 135 240 429 294 578 198 542 228 1134 86 1691 -99
385 -280 749 -530 1066 -111 140 -339 364 -481 474 -397 305 -836 491 -1335
566 -158 24 -502 34 -648 20z"/>
<path d="M120 4632 c0 -33 3 -93 6 -135 l7 -77 344 -2 345 -3 456 -1152 456
-1153 1251 0 1251 0 50 140 51 140 -1196 2 -1196 3 -440 1145 -440 1145 -473
3 -472 2 0 -58z"/>
<path d="M1584 3943 c3 -10 28 -74 55 -143 l49 -125 1560 -3 1560 -2 51 139
c28 76 51 141 51 145 0 3 -750 6 -1666 6 -1582 0 -1665 -1 -1660 -17z"/>
<path d="M1787 3433 c-3 -5 19 -69 48 -143 l52 -135 1365 -3 1365 -2 50 137
c28 76 49 141 46 146 -6 9 -2920 9 -2926 0z"/>
<path d="M1995 2873 c8 -21 32 -83 54 -138 l38 -100 1170 -3 1170 -2 28 77
c15 43 38 106 51 141 l23 62 -1274 0 -1275 0 15 -37z"/>
<path d="M2005 1946 c-132 -58 -162 -226 -61 -332 89 -92 236 -81 310 24 96
136 1 322 -164 321 -30 0 -68 -6 -85 -13z"/>
<path d="M3795 1946 c-48 -21 -101 -87 -114 -143 -28 -116 52 -233 169 -249
164 -22 289 151 215 296 -18 35 -75 87 -108 99 -38 15 -125 13 -162 -3z"/>
<path d="M820 140 l0 -140 2045 0 2045 0 0 140 0 140 -2045 0 -2045 0 0 -140z"/>
</g>
</svg>
